<svg xmlns="http://www.w3.org/2000/svg" xmlns:xlink="http://www.w3.org/1999/xlink" width="500" zoomAndPan="magnify" viewBox="0 0 375 374.999991" height="500" preserveAspectRatio="xMidYMid meet" version="1.0"><defs><clipPath id="c2827c51bd"><path d="M 1.855469 9.667969 L 373.105469 9.667969 L 373.105469 365.167969 L 1.855469 365.167969 Z M 1.855469 9.667969 " clip-rule="nonzero"/></clipPath><clipPath id="089df01841"><path d="M 100.105469 28.972656 C 108.382812 28.972656 115.09375 35.683594 115.09375 43.960938 C 115.09375 52.238281 108.382812 58.945312 100.105469 58.945312 C 91.828125 58.945312 85.117188 52.238281 85.117188 43.960938 C 85.117188 35.683594 91.828125 28.972656 100.105469 28.972656 Z M 111.433594 103.5625 C 118.683594 103.5625 124.558594 109.441406 124.558594 116.6875 C 124.558594 123.9375 118.679688 129.8125 111.433594 129.8125 C 104.183594 129.8125 98.308594 123.9375 98.308594 116.6875 C 98.308594 109.441406 104.183594 103.5625 111.433594 103.5625 Z M 21.519531 76.730469 C 32.378906 76.730469 41.183594 85.535156 41.183594 96.390625 C 41.183594 107.253906 32.378906 116.0625 21.519531 116.0625 C 10.65625 116.0625 1.855469 107.253906 1.855469 96.390625 C 1.855469 85.535156 10.65625 76.730469 21.519531 76.730469 Z M 163.699219 231.113281 C 156.382812 231.113281 150.449219 237.042969 150.449219 244.363281 C 150.449219 251.679688 156.382812 257.609375 163.699219 257.609375 C 171.015625 257.609375 176.949219 251.679688 176.949219 244.363281 C 176.949219 237.042969 171.019531 231.113281 163.699219 231.113281 Z M 84.828125 178.957031 C 95.175781 178.957031 103.566406 187.347656 103.566406 197.699219 C 103.566406 208.046875 95.175781 216.441406 84.828125 216.441406 C 74.476562 216.441406 66.085938 208.046875 66.085938 197.699219 C 66.085938 187.347656 74.476562 178.957031 84.828125 178.957031 Z M 271.199219 73.101562 C 265.539062 74.609375 259.449219 76.726562 253.140625 79.40625 C 253.511719 80.875 253.707031 82.414062 253.707031 83.996094 C 253.707031 84.589844 253.679688 85.171875 253.625 85.746094 C 254.203125 85.960938 254.777344 86.175781 255.347656 86.390625 C 257.390625 87.167969 259.40625 87.972656 261.394531 88.816406 C 285.621094 99.054688 305.894531 114.085938 319.570312 131.113281 C 317.476562 122.628906 314.273438 114.410156 310.066406 106.566406 C 304.394531 95.992188 296.890625 86.082031 287.835938 77.101562 C 285.992188 78.25 283.824219 78.914062 281.492188 78.914062 C 277.128906 78.914062 273.304688 76.585938 271.199219 73.101562 Z M 204.476562 33.117188 C 214.449219 41.882812 223.296875 52.925781 230.714844 65.738281 C 232.082031 65.421875 233.503906 65.253906 234.964844 65.253906 C 240.96875 65.253906 246.316406 68.078125 249.746094 72.472656 C 256.652344 69.519531 263.332031 67.199219 269.550781 65.558594 C 269.675781 64.425781 269.960938 63.339844 270.378906 62.324219 C 268.339844 60.847656 266.253906 59.410156 264.117188 58.015625 C 247.289062 47.011719 227.515625 38.523438 205.679688 33.394531 L 204.472656 33.117188 Z M 219.238281 241.441406 C 222.308594 236.378906 225.199219 231.199219 227.871094 225.945312 C 229.085938 223.554688 230.253906 221.148438 231.375 218.726562 C 237.144531 206.265625 241.621094 193.46875 244.34375 180.757812 C 237.984375 177.894531 233.554688 171.503906 233.554688 164.078125 C 233.554688 155.621094 239.300781 148.5 247.101562 146.417969 C 247.015625 145.171875 246.910156 143.929688 246.777344 142.695312 C 245.714844 132.679688 243.980469 123 241.640625 113.757812 C 241.425781 112.914062 241.207031 112.074219 240.984375 111.238281 C 240.183594 108.25 239.324219 105.308594 238.398438 102.421875 C 237.285156 102.628906 236.140625 102.738281 234.964844 102.738281 C 229.613281 102.738281 224.789062 100.496094 221.375 96.898438 C 220.59375 97.429688 219.816406 97.96875 219.039062 98.515625 C 218.046875 99.214844 217.058594 99.925781 216.074219 100.648438 C 203.289062 110.035156 191.253906 121.351562 181.636719 134.257812 C 185 137.59375 187.085938 142.214844 187.085938 147.324219 C 187.085938 154.523438 182.949219 160.753906 176.933594 163.777344 L 176.992188 163.96875 C 185.09375 188.914062 200.480469 216.734375 219.238281 241.441406 Z M 308.328125 205.898438 C 309.246094 204.417969 310.144531 202.929688 311.027344 201.425781 C 316.636719 190.027344 320.082031 178.636719 321.566406 167.460938 C 322.15625 162.980469 322.4375 158.535156 322.421875 154.125 C 322.410156 152.335938 322.355469 150.558594 322.25 148.785156 C 321.503906 147.441406 320.710938 146.113281 319.875 144.785156 C 307.488281 125.164062 285.617188 107.421875 258.398438 95.917969 C 256.085938 94.941406 253.726562 94.007812 251.335938 93.121094 C 249.921875 95.652344 247.9375 97.820312 245.558594 99.453125 C 247.191406 104.503906 248.644531 109.703125 249.902344 115.03125 C 251.238281 120.695312 252.359375 126.503906 253.25 132.441406 C 253.71875 135.550781 254.117188 138.703125 254.460938 141.882812 C 254.601562 143.261719 254.722656 144.648438 254.820312 146.039062 C 263.496094 147.464844 270.117188 154.996094 270.117188 164.078125 C 270.117188 166.777344 269.535156 169.339844 268.480469 171.644531 C 274.566406 176.867188 280.632812 182.933594 286.589844 189.65625 C 289.484375 192.925781 292.355469 196.351562 295.183594 199.910156 C 296.777344 201.914062 298.355469 203.960938 299.921875 206.039062 C 301.308594 205.5625 302.792969 205.300781 304.34375 205.300781 C 305.730469 205.300781 307.066406 205.507812 308.324219 205.898438 Z M 232.152344 268.882812 C 230.261719 266.84375 228.394531 264.765625 226.546875 262.648438 C 224.457031 260.253906 222.394531 257.808594 220.363281 255.324219 L 219.90625 254.761719 C 219.207031 255.800781 218.507812 256.835938 217.800781 257.863281 C 206.691406 274.003906 193.914062 288.691406 180.660156 300.828125 C 197.179688 296.519531 214.441406 289.355469 231.210938 279.628906 C 230.746094 278.273438 230.492188 276.816406 230.492188 275.304688 C 230.492188 272.972656 231.09375 270.785156 232.152344 268.882812 Z M 293.648438 210.558594 C 289.542969 205.097656 285.34375 199.921875 281.097656 195.101562 C 275.410156 188.648438 269.632812 182.832031 263.863281 177.84375 C 260.664062 180.644531 256.476562 182.34375 251.894531 182.359375 C 248.8125 196.722656 243.632812 211.132812 236.925781 225.054688 C 236.222656 226.515625 235.5 227.96875 234.765625 229.421875 C 231.5625 235.722656 228.058594 241.90625 224.304688 247.9375 C 224.820312 248.585938 225.339844 249.226562 225.863281 249.867188 C 227.992188 252.480469 230.160156 255.050781 232.351562 257.570312 C 234.117188 259.585938 235.894531 261.570312 237.6875 263.515625 C 239.503906 262.582031 241.558594 262.054688 243.738281 262.054688 C 247.179688 262.054688 250.316406 263.367188 252.671875 265.519531 C 256.632812 262.585938 260.53125 259.507812 264.351562 256.285156 C 268.804688 252.523438 273.152344 248.566406 277.363281 244.425781 C 282.988281 238.867188 288.367188 232.972656 293.421875 226.753906 C 291.796875 224.527344 290.835938 221.78125 290.835938 218.808594 C 290.835938 215.699219 291.886719 212.839844 293.648438 210.558594 Z M 282.039062 309.070312 C 271.5 303.578125 260.816406 295.933594 250.398438 286.761719 C 248.441406 287.898438 246.167969 288.554688 243.742188 288.554688 C 240.75 288.554688 237.988281 287.5625 235.769531 285.886719 C 217.960938 296.300781 199.570312 303.921875 182 308.449219 C 181.949219 309.457031 181.808594 310.4375 181.582031 311.386719 L 234.117188 339.355469 C 234.269531 339.191406 234.421875 339.027344 234.578125 338.871094 L 234.589844 338.855469 C 237.390625 336.058594 241.253906 334.328125 245.507812 334.328125 C 246.308594 334.328125 247.097656 334.390625 247.867188 334.507812 C 257.550781 317.777344 272.164062 311.453125 282.039062 309.070312 Z M 336.734375 286.804688 C 334.539062 281.429688 332.160156 276.039062 329.625 270.660156 C 324.371094 259.515625 318.445312 248.457031 312.042969 237.867188 C 310.796875 235.808594 309.53125 233.765625 308.253906 231.746094 C 307.015625 232.117188 305.703125 232.316406 304.347656 232.316406 C 302.660156 232.316406 301.046875 232.007812 299.558594 231.445312 C 294.285156 237.953125 288.660156 244.121094 282.769531 249.925781 C 278.464844 254.175781 274.015625 258.230469 269.445312 262.085938 C 265.257812 265.621094 260.976562 268.992188 256.621094 272.1875 C 256.859375 273.191406 256.988281 274.234375 256.988281 275.304688 C 256.988281 277.398438 256.503906 279.375 255.636719 281.136719 C 268.421875 292.40625 281.515625 301.199219 294.039062 306.1875 C 300.226562 308.65625 306.273438 310.191406 312.078125 310.640625 C 312.867188 310.703125 313.652344 310.746094 314.433594 310.765625 C 317.976562 310.589844 321.996094 310.042969 326.648438 308.929688 C 337.289062 306.386719 337.460938 294.691406 336.734375 286.804688 Z M 334.425781 168.433594 C 331.378906 177.652344 327.652344 186.507812 323.34375 194.976562 C 321.621094 198.367188 319.804688 201.695312 317.902344 204.960938 C 316.988281 206.8125 316.023438 208.660156 315.003906 210.511719 C 316.792969 212.800781 317.851562 215.679688 317.851562 218.808594 C 317.851562 222.109375 316.667969 225.136719 314.703125 227.484375 L 314.753906 227.570312 C 323.558594 241.464844 331.597656 256.308594 338.414062 271.230469 C 339.585938 269.804688 340.78125 269.203125 341.011719 269.101562 C 342.332031 268.417969 343.296875 267.585938 343.933594 266.671875 C 344.527344 265.8125 344.84375 264.867188 344.890625 263.90625 C 344.9375 262.902344 344.699219 261.851562 344.191406 260.84375 C 343.570312 259.609375 342.550781 258.441406 341.15625 257.472656 C 340.421875 256.96875 339.855469 256.203125 339.613281 255.265625 C 339.082031 253.203125 340.320312 251.097656 342.382812 250.5625 C 348.570312 248.957031 348.828125 244.878906 347.859375 241.160156 C 347.367188 239.273438 346.582031 237.320312 345.917969 235.667969 C 345.601562 234.890625 345.3125 234.171875 345.058594 233.472656 C 342.125 225.359375 349.480469 221.738281 358.65625 217.222656 C 359.972656 216.574219 361.339844 215.898438 362.738281 215.179688 C 365.144531 213.9375 365.605469 212.320312 364.988281 210.523438 C 363.921875 207.417969 360.851562 203.660156 357.398438 199.84375 C 353.058594 195.039062 347.054688 187.722656 342.066406 180.699219 C 338.976562 176.355469 336.238281 172.066406 334.425781 168.4375 Z M 313.875 69.832031 C 304.414062 57.546875 293.273438 48.5625 281.117188 42.164062 C 262.015625 32.109375 240.320312 28.359375 218.609375 28.152344 C 218.09375 28.148438 217.273438 28.144531 216.230469 28.148438 C 235.515625 33.574219 253.09375 41.566406 268.351562 51.546875 C 270.792969 53.140625 273.167969 54.785156 275.492188 56.480469 C 277.257812 55.460938 279.304688 54.875 281.492188 54.875 C 287.007812 54.875 291.660156 58.597656 293.074219 63.664062 C 295.535156 63.96875 297.882812 64.386719 300.121094 64.894531 C 305.257812 66.066406 309.820312 67.757812 313.875 69.832031 Z M 329.167969 95.171875 C 328.726562 94.808594 328.363281 94.34375 328.113281 93.785156 C 327.855469 93.21875 327.59375 92.65625 327.328125 92.097656 C 326.703125 91.136719 326.039062 90.183594 325.328125 89.253906 C 319.566406 81.675781 310.960938 75.296875 298.398438 72.425781 L 297.722656 72.273438 C 296.238281 71.957031 294.703125 71.679688 293.113281 71.457031 C 294.769531 73.097656 296.378906 74.765625 297.9375 76.464844 C 305.46875 84.675781 311.835938 93.550781 316.871094 102.9375 C 324.21875 116.632812 328.714844 131.402344 329.855469 146.757812 C 330.074219 149.75 330.171875 152.769531 330.136719 155.804688 C 331.179688 151.855469 332.097656 147.839844 332.871094 143.765625 C 333.085938 142.648438 333.289062 141.527344 333.480469 140.398438 L 333.527344 140.121094 L 333.546875 139.984375 L 333.570312 139.847656 L 333.796875 138.464844 C 333.820312 138.316406 333.855469 138.171875 333.890625 138.03125 C 334.605469 134.09375 335.289062 131.132812 335.484375 130.277344 C 335.5 130.203125 335.515625 130.128906 335.53125 130.054688 C 335.761719 129.039062 335.941406 127.792969 336.054688 126.347656 C 336.140625 125.300781 336.179688 124.15625 336.179688 122.917969 C 336.171875 115.304688 334.449219 104.785156 329.171875 95.175781 Z M 167.347656 68.089844 C 172.285156 68.089844 176.542969 71.015625 178.476562 75.226562 C 180.140625 75.101562 181.804688 75 183.460938 74.921875 C 195.171875 74.375 206.652344 74.996094 217.730469 76.625 C 219.027344 73.597656 221.097656 70.984375 223.6875 69.027344 C 215.910156 55.730469 206.539062 44.523438 195.96875 36.050781 C 193.34375 38.324219 189.917969 39.699219 186.167969 39.699219 C 177.894531 39.699219 171.1875 32.992188 171.1875 24.71875 C 171.1875 16.445312 177.894531 9.738281 186.167969 9.738281 C 192.988281 9.738281 198.746094 14.300781 200.558594 20.535156 C 208.210938 20.449219 216.382812 20.417969 218.667969 20.441406 C 241.511719 20.65625 264.414062 24.644531 284.71875 35.328125 C 304.601562 45.800781 321.925781 62.625 334.175781 88.496094 C 334.574219 89.128906 334.960938 89.765625 335.332031 90.410156 C 341.792969 101.609375 343.882812 114.019531 343.890625 122.914062 C 343.898438 126.480469 343.570312 129.535156 343.054688 131.777344 C 343.039062 131.859375 343.019531 131.9375 342.992188 132.019531 C 342.8125 132.792969 342.152344 135.644531 341.457031 139.371094 C 341.445312 139.472656 341.433594 139.570312 341.417969 139.671875 C 341.144531 141.382812 340.851562 143.078125 340.53125 144.765625 C 339.519531 151.472656 338.886719 159.015625 340.324219 162.746094 C 341.65625 166.203125 344.726562 171.109375 348.355469 176.222656 C 353.210938 183.054688 358.972656 190.09375 363.113281 194.671875 C 367.175781 199.15625 370.828125 203.707031 372.308594 208.011719 C 374.234375 213.628906 373.0625 218.542969 366.277344 222.042969 C 364.867188 222.769531 363.445312 223.46875 362.074219 224.144531 C 356.335938 226.96875 351.738281 229.238281 352.320312 230.84375 C 352.511719 231.371094 352.785156 232.054688 353.085938 232.792969 C 353.824219 234.636719 354.703125 236.816406 355.328125 239.222656 C 356.902344 245.257812 356.84375 251.757812 350.128906 255.722656 C 350.488281 256.257812 350.808594 256.808594 351.089844 257.367188 C 352.199219 259.566406 352.714844 261.933594 352.601562 264.269531 C 352.488281 266.652344 351.726562 268.976562 350.28125 271.058594 C 348.917969 273.027344 346.96875 274.746094 344.398438 276.039062 L 344.28125 276.097656 C 344.28125 276.101562 343.542969 276.367188 343.703125 279.460938 C 343.730469 279.957031 343.855469 280.976562 344 282.203125 C 345.160156 291.640625 347.640625 311.835938 328.429688 316.429688 C 317.609375 319.015625 309.804688 318.898438 303.628906 317.96875 C 300.207031 317.453125 297.289062 316.683594 294.636719 315.984375 C 293.839844 315.78125 293.070312 315.574219 292.222656 315.367188 C 291.570312 315.382812 290.179688 315.449219 288.273438 315.714844 C 286.195312 316.007812 283.5 316.535156 280.484375 317.496094 C 272.539062 320.027344 262.332031 325.554688 255.03125 337.621094 C 255.519531 338.007812 255.984375 338.417969 256.429688 338.859375 L 256.433594 338.867188 L 256.441406 338.871094 C 259.238281 341.675781 260.96875 345.535156 260.96875 349.789062 C 260.96875 354.042969 259.238281 357.902344 256.441406 360.703125 L 256.433594 360.710938 L 256.429688 360.71875 C 253.621094 363.519531 249.761719 365.25 245.507812 365.25 C 241.253906 365.25 237.390625 363.519531 234.589844 360.722656 L 234.574219 360.707031 C 231.78125 357.910156 230.046875 354.046875 230.046875 349.789062 C 230.046875 348.535156 230.195312 347.320312 230.476562 346.15625 L 177.945312 318.1875 C 177.792969 318.347656 177.640625 318.511719 177.484375 318.667969 L 177.476562 318.679688 L 177.46875 318.683594 C 174.664062 321.480469 170.800781 323.210938 166.554688 323.210938 C 162.292969 323.210938 158.433594 321.480469 155.632812 318.6875 L 155.621094 318.671875 C 152.820312 315.871094 151.089844 312.011719 151.089844 307.753906 C 151.089844 303.496094 152.820312 299.636719 155.621094 296.835938 L 155.632812 296.820312 C 158.433594 294.023438 162.292969 292.292969 166.554688 292.292969 C 169.855469 292.292969 172.929688 293.335938 175.449219 295.121094 C 189.671875 282.105469 203.332031 266.050781 214.859375 248.398438 C 198.78125 227.597656 184.960938 204.425781 175.65625 182.347656 C 173.285156 176.710938 171.203125 171.148438 169.457031 165.710938 C 169.199219 165.722656 168.941406 165.730469 168.683594 165.730469 C 158.519531 165.730469 150.277344 157.488281 150.277344 147.324219 C 150.277344 137.160156 158.519531 128.921875 168.683594 128.921875 C 170.945312 128.921875 173.117188 129.332031 175.121094 130.082031 C 176.65625 128.003906 178.253906 125.96875 179.898438 123.972656 C 188.160156 113.949219 197.746094 104.960938 207.867188 97.15625 C 210.089844 95.449219 212.332031 93.792969 214.597656 92.195312 C 215.5 91.558594 216.410156 90.929688 217.316406 90.308594 C 216.636719 88.402344 216.253906 86.347656 216.230469 84.207031 C 205.457031 82.652344 194.289062 82.089844 182.894531 82.6875 C 181.703125 82.75 180.503906 82.824219 179.308594 82.914062 C 178.121094 88.425781 173.214844 92.558594 167.347656 92.558594 C 160.585938 92.558594 155.109375 87.082031 155.109375 80.324219 C 155.109375 73.5625 160.585938 68.085938 167.347656 68.085938 Z M 167.347656 68.089844 " clip-rule="evenodd"/></clipPath><linearGradient x1="-586.810933" gradientTransform="matrix(0.0553545, 0, 0, 0.0553545, 1.85583, 9.73969)" y1="5293.495802" x2="7319.990205" gradientUnits="userSpaceOnUse" y2="1178.161379" id="f07e40d52c"><stop stop-opacity="1" stop-color="rgb(0%, 30.198669%, 27.799988%)" offset="0"/><stop stop-opacity="1" stop-color="rgb(0%, 30.198669%, 27.799988%)" offset="0.25"/><stop stop-opacity="1" stop-color="rgb(0%, 30.198669%, 27.799988%)" offset="0.332577"/><stop stop-opacity="1" stop-color="rgb(0%, 30.198669%, 27.799988%)" offset="0.375"/><stop stop-opacity="1" stop-color="rgb(0%, 30.198669%, 27.799988%)" offset="0.4375"/><stop stop-opacity="1" stop-color="rgb(0.00457764%, 30.195618%, 27.79541%)" offset="0.453125"/><stop stop-opacity="1" stop-color="rgb(0.144958%, 30.108643%, 27.684021%)" offset="0.460938"/><stop stop-opacity="1" stop-color="rgb(0.418091%, 29.942322%, 27.471924%)" offset="0.46875"/><stop stop-opacity="1" stop-color="rgb(0.691223%, 29.776001%, 27.259827%)" offset="0.476563"/><stop stop-opacity="1" stop-color="rgb(0.964355%, 29.608154%, 27.047729%)" offset="0.484375"/><stop stop-opacity="1" stop-color="rgb(1.237488%, 29.441833%, 26.835632%)" offset="0.492188"/><stop stop-opacity="1" stop-color="rgb(1.51062%, 29.275513%, 26.622009%)" offset="0.5"/><stop stop-opacity="1" stop-color="rgb(1.783752%, 29.107666%, 26.409912%)" offset="0.507813"/><stop stop-opacity="1" stop-color="rgb(2.056885%, 28.941345%, 26.197815%)" offset="0.515625"/><stop stop-opacity="1" stop-color="rgb(2.330017%, 28.773499%, 25.985718%)" offset="0.523438"/><stop stop-opacity="1" stop-color="rgb(2.603149%, 28.607178%, 25.773621%)" offset="0.53125"/><stop stop-opacity="1" stop-color="rgb(2.876282%, 28.440857%, 25.559998%)" offset="0.539062"/><stop stop-opacity="1" stop-color="rgb(3.149414%, 28.27301%, 25.3479%)" offset="0.546875"/><stop stop-opacity="1" stop-color="rgb(3.422546%, 28.106689%, 25.135803%)" offset="0.554688"/><stop stop-opacity="1" stop-color="rgb(3.695679%, 27.940369%, 24.923706%)" offset="0.5625"/><stop stop-opacity="1" stop-color="rgb(3.968811%, 27.772522%, 24.711609%)" offset="0.570312"/><stop stop-opacity="1" stop-color="rgb(4.241943%, 27.606201%, 24.497986%)" offset="0.578125"/><stop stop-opacity="1" stop-color="rgb(4.515076%, 27.438354%, 24.285889%)" offset="0.585938"/><stop stop-opacity="1" stop-color="rgb(4.788208%, 27.272034%, 24.073792%)" offset="0.59375"/><stop stop-opacity="1" stop-color="rgb(5.06134%, 27.105713%, 23.861694%)" offset="0.601562"/><stop stop-opacity="1" stop-color="rgb(5.332947%, 26.937866%, 23.649597%)" offset="0.609375"/><stop stop-opacity="1" stop-color="rgb(5.606079%, 26.771545%, 23.435974%)" offset="0.617188"/><stop stop-opacity="1" stop-color="rgb(5.879211%, 26.605225%, 23.223877%)" offset="0.625"/><stop stop-opacity="1" stop-color="rgb(6.152344%, 26.437378%, 23.01178%)" offset="0.632812"/><stop stop-opacity="1" stop-color="rgb(6.425476%, 26.271057%, 22.799683%)" offset="0.640625"/><stop stop-opacity="1" stop-color="rgb(6.698608%, 26.10321%, 22.587585%)" offset="0.648438"/><stop stop-opacity="1" stop-color="rgb(6.971741%, 25.93689%, 22.373962%)" offset="0.65625"/><stop stop-opacity="1" stop-color="rgb(7.244873%, 25.770569%, 22.161865%)" offset="0.664063"/><stop stop-opacity="1" stop-color="rgb(7.518005%, 25.602722%, 21.949768%)" offset="0.667423"/><stop stop-opacity="1" stop-color="rgb(7.655334%, 25.520325%, 21.844482%)" offset="0.671875"/><stop stop-opacity="1" stop-color="rgb(7.791138%, 25.436401%, 21.737671%)" offset="0.679688"/><stop stop-opacity="1" stop-color="rgb(8.06427%, 25.270081%, 21.525574%)" offset="0.6875"/><stop stop-opacity="1" stop-color="rgb(8.337402%, 25.102234%, 21.311951%)" offset="0.695313"/><stop stop-opacity="1" stop-color="rgb(8.610535%, 24.935913%, 21.099854%)" offset="0.703125"/><stop stop-opacity="1" stop-color="rgb(8.796692%, 24.74823%, 20.855713%)" offset="0.71875"/><stop stop-opacity="1" stop-color="rgb(8.702087%, 24.595642%, 20.643616%)" offset="0.734375"/><stop stop-opacity="1" stop-color="rgb(8.418274%, 24.49646%, 20.495605%)" offset="0.75"/><stop stop-opacity="1" stop-color="rgb(8.132935%, 24.397278%, 20.347595%)" offset="0.765625"/><stop stop-opacity="1" stop-color="rgb(7.849121%, 24.298096%, 20.198059%)" offset="0.78125"/><stop stop-opacity="1" stop-color="rgb(7.563782%, 24.198914%, 20.050049%)" offset="0.796875"/><stop stop-opacity="1" stop-color="rgb(7.279968%, 24.099731%, 19.902039%)" offset="0.8125"/><stop stop-opacity="1" stop-color="rgb(6.994629%, 24.002075%, 19.752502%)" offset="0.828125"/><stop stop-opacity="1" stop-color="rgb(6.774902%, 23.925781%, 19.639587%)" offset="0.84375"/><stop stop-opacity="1" stop-color="rgb(6.698608%, 23.899841%, 19.599915%)" offset="0.875"/><stop stop-opacity="1" stop-color="rgb(6.698608%, 23.899841%, 19.599915%)" offset="1"/></linearGradient></defs><g clip-path="url(#c2827c51bd)"><g clip-path="url(#089df01841)"><path fill="url(#f07e40d52c)" d="M 1.855469 9.738281 L 1.855469 365.167969 L 373.105469 365.167969 L 373.105469 9.738281 Z M 1.855469 9.738281 " fill-rule="nonzero"/></g></g></svg>